<svg width="94" height="45" viewBox="0 0 94 45" fill="none" xmlns="http://www.w3.org/2000/svg">
<path d="M21.0174 5.606L25.1714 13.914L9.8574 22.47V22.904L25.1714 31.398L21.0174 39.706L0.867399 28.298V17.014L21.0174 5.606ZM62.5952 0.769999L38.4772 42.93C38.2705 43.3433 38.0845 43.6327 37.9192 43.798C37.4645 44.2527 36.7618 44.48 35.8112 44.48H31.4092L55.5272 2.32C55.7338 1.90666 55.9198 1.61733 56.0852 1.452C56.5398 0.997332 57.2425 0.769999 58.1932 0.769999H62.5952ZM73.3788 39.706L69.2248 31.398L84.5388 22.904V22.47L69.2248 13.914L73.3788 5.606L93.5288 17.014V28.298L73.3788 39.706Z" fill="white"/>
</svg>
