<svg width="32" height="32" viewBox="0 0 32 32" fill="none" xmlns="http://www.w3.org/2000/svg">
<path d="M3.30769 4.46155C2.69565 4.46155 2.10868 4.70469 1.67591 5.13745C1.24313 5.57023 1 6.15719 1 6.76924V28.6923C1 29.3043 1.24313 29.8914 1.67591 30.3241C2.10868 30.7568 2.69565 31 3.30769 31H28.6923C29.3043 31 29.8914 30.7568 30.3241 30.3241C30.7568 29.8914 31 29.3043 31 28.6923V6.76924C31 6.15719 30.7568 5.57023 30.3241 5.13745C29.8914 4.70469 29.3043 4.46155 28.6923 4.46155H24.0769" stroke="white" stroke-width="1.71429" stroke-linecap="round" stroke-linejoin="round"/>
<path d="M7.92297 1V7.92308" stroke="white" stroke-width="1.71429" stroke-linecap="round" stroke-linejoin="round"/>
<path d="M24.0769 1V7.92308" stroke="white" stroke-width="1.71429" stroke-linecap="round" stroke-linejoin="round"/>
<path d="M7.92297 4.46155H19.4614" stroke="white" stroke-width="1.71429" stroke-linecap="round" stroke-linejoin="round"/>
<path d="M16.574 10.5824L18.5046 14.4662C18.5478 14.5644 18.6163 14.6494 18.7031 14.7125C18.7898 14.7756 18.8918 14.8146 18.9985 14.8254L23.2863 15.4764C23.4089 15.4923 23.5245 15.5429 23.6193 15.6221C23.7144 15.7013 23.7848 15.8058 23.8224 15.9236C23.86 16.0413 23.8635 16.1673 23.8321 16.2869C23.801 16.4065 23.7361 16.5147 23.6456 16.5989L20.4802 19.6071C20.433 19.6971 20.4083 19.7973 20.4083 19.8989C20.4083 20.0006 20.433 20.1007 20.4802 20.1908L21.0863 24.4563C21.1122 24.5795 21.1017 24.7076 21.0562 24.825C21.0107 24.9425 20.9321 25.0443 20.8299 25.1179C20.7277 25.1915 20.6063 25.234 20.4805 25.2402C20.3547 25.2462 20.2298 25.2155 20.121 25.152L16.3046 23.1316C16.2058 23.0871 16.0987 23.064 15.9903 23.064C15.8819 23.064 15.7748 23.0871 15.676 23.1316L11.8596 25.152C11.7508 25.2155 11.6259 25.2462 11.5001 25.2402C11.3743 25.234 11.2529 25.1915 11.1507 25.1179C11.0486 25.0443 10.9699 24.9425 10.9244 24.825C10.8789 24.7076 10.8684 24.5795 10.8943 24.4563L11.6127 20.1908C11.6436 20.0918 11.6495 19.9867 11.6299 19.8848C11.6103 19.783 11.5658 19.6876 11.5004 19.6071L8.33506 16.5764C8.2511 16.4914 8.19216 16.3848 8.16473 16.2685C8.13729 16.1522 8.14241 16.0306 8.17949 15.917C8.2166 15.8034 8.28424 15.7022 8.37505 15.6244C8.46586 15.5467 8.57628 15.4955 8.69425 15.4764L12.9821 14.8478C13.0888 14.837 13.1908 14.7981 13.2776 14.735C13.3643 14.6719 13.4328 14.5869 13.476 14.4886L15.4066 10.6049C15.4583 10.4949 15.5397 10.4016 15.6416 10.3355C15.7435 10.2694 15.8619 10.2332 15.9833 10.2308C16.1048 10.2285 16.2245 10.2602 16.3289 10.3223C16.4332 10.3845 16.5182 10.4745 16.574 10.5824Z" stroke="white" stroke-width="1.71429" stroke-linecap="round" stroke-linejoin="round"/>
</svg>
