<svg width="30" height="30" viewBox="0 0 30 30" fill="none" xmlns="http://www.w3.org/2000/svg">
<g clip-path="url(#clip0_18_751)">
<path d="M8.6341 9.64284C11.001 9.64284 12.9198 7.72406 12.9198 5.35713C12.9198 2.99019 11.001 1.07141 8.6341 1.07141C6.26717 1.07141 4.34839 2.99019 4.34839 5.35713C4.34839 7.72406 6.26717 9.64284 8.6341 9.64284Z" stroke="white" stroke-width="1.71429" stroke-linecap="round" stroke-linejoin="round"/>
<path d="M12.2478 22.5525L11.4508 28.9285H5.84258L4.77115 20.3571H1.13416V17.1428C1.13416 15.1537 1.92433 13.246 3.33085 11.8395C4.73738 10.433 6.64503 9.64282 8.63416 9.64282C10.6233 9.64282 12.5309 10.433 13.9375 11.8395C15.0193 12.9214 15.7365 14.2997 16.01 15.7835" stroke="white" stroke-width="1.71429" stroke-linecap="round" stroke-linejoin="round"/>
<path d="M15.632 21.3654C15.632 20.3212 16.4785 19.4746 17.5227 19.4746H26.9766C28.0208 19.4746 28.8673 20.3212 28.8673 21.3654V27.0378C28.8673 28.082 28.0208 28.9284 26.9766 28.9284H17.5227C16.4785 28.9284 15.632 28.082 15.632 27.0378V21.3654Z" stroke="white" stroke-width="1.71429" stroke-linecap="round" stroke-linejoin="round"/>
<path d="M19.6624 19.4747V18.0799C19.6624 16.8964 20.6218 15.937 21.8053 15.937H22.6894C23.8727 15.937 24.8323 16.8964 24.8323 18.0799V19.4747" stroke="white" stroke-width="1.71429" stroke-linecap="round" stroke-linejoin="round"/>
</g>
<defs>
<clipPath id="clip0_18_751">
<rect width="30" height="30" fill="white"/>
</clipPath>
</defs>
</svg>
