<svg width="30" height="30" viewBox="0 0 30 30" fill="none" xmlns="http://www.w3.org/2000/svg">
<g clip-path="url(#clip0_18_742)">
<path d="M15 28.9286C22.6926 28.9286 28.9286 22.6926 28.9286 15C28.9286 7.30745 22.6926 1.07141 15 1.07141C7.30745 1.07141 1.07141 7.30745 1.07141 15C1.07141 22.6926 7.30745 28.9286 15 28.9286Z" stroke="white" stroke-width="1.71429" stroke-linecap="round" stroke-linejoin="round"/>
<path d="M11.7856 21.4286H18.2142" stroke="white" stroke-width="1.71429" stroke-linecap="round" stroke-linejoin="round"/>
<path d="M15 21.4286V13.9286H12.8572" stroke="white" stroke-width="1.71429" stroke-linecap="round" stroke-linejoin="round"/>
<path d="M14.9999 9.10707C14.7041 9.10707 14.4642 8.86722 14.4642 8.57136C14.4642 8.27549 14.7041 8.03564 14.9999 8.03564" stroke="white" stroke-width="1.71429" stroke-linecap="round" stroke-linejoin="round"/>
<path d="M15 9.10707C15.2959 9.10707 15.5357 8.86722 15.5357 8.57136C15.5357 8.27549 15.2959 8.03564 15 8.03564" stroke="white" stroke-width="1.71429" stroke-linecap="round" stroke-linejoin="round"/>
</g>
<defs>
<clipPath id="clip0_18_742">
<rect width="30" height="30" fill="white"/>
</clipPath>
</defs>
</svg>
