<svg width="25" height="29" viewBox="0 0 25 29" fill="none" xmlns="http://www.w3.org/2000/svg">
<path d="M24 25.9231C24 26.4739 23.7796 27.0022 23.3876 27.3917C22.9953 27.7811 22.4636 28 21.9091 28H3.0909C2.53635 28 2.00453 27.7811 1.6124 27.3917C1.22029 27.0022 1 26.4739 1 25.9231V3.07692C1 2.52608 1.22029 1.99782 1.6124 1.60832C2.00453 1.21882 2.53635 1 3.0909 1H14.7702C15.3248 1 15.8566 1.21882 16.2487 1.60832L23.3876 8.69938C23.7796 9.08887 24 9.61715 24 10.168V25.9231Z" stroke="white" stroke-width="1.71429" stroke-linecap="round" stroke-linejoin="round"/>
<path d="M13.6678 13.2019H18.8951" stroke="white" stroke-width="1.71429" stroke-linecap="round" stroke-linejoin="round"/>
<path d="M13.6678 20.4062H18.8951" stroke="white" stroke-width="1.71429" stroke-linecap="round" stroke-linejoin="round"/>
<path d="M5.58203 20.2887L7.33398 22.0289L10.2539 17.9684" stroke="white" stroke-width="1.71429" stroke-linecap="round" stroke-linejoin="round"/>
<path d="M5.58203 12.9545L7.33398 14.6947L10.2539 10.6342" stroke="white" stroke-width="1.71429" stroke-linecap="round" stroke-linejoin="round"/>
</svg>
