<svg width="27" height="30" viewBox="0 0 27 30" fill="none" xmlns="http://www.w3.org/2000/svg">
<path d="M16.3929 1.07141H10.6072C9.54205 1.07141 8.67859 2.0308 8.67859 3.21427V4.2857C8.67859 5.46915 9.54205 6.42855 10.6072 6.42855H16.3929C17.458 6.42855 18.3214 5.46915 18.3214 4.2857V3.21427C18.3214 2.0308 17.458 1.07141 16.3929 1.07141Z" stroke="white" stroke-width="1.71429" stroke-linecap="round" stroke-linejoin="round"/>
<path d="M18.8036 3.21423H21.6964C22.2079 3.21423 22.6985 3.44 23.0601 3.84185C23.4217 4.24373 23.625 4.78876 23.625 5.35709V26.7857C23.625 27.3539 23.4217 27.8991 23.0601 28.3009C22.6985 28.7027 22.2079 28.9285 21.6964 28.9285H5.30357C4.79208 28.9285 4.30154 28.7027 3.93986 28.3009C3.57819 27.8991 3.375 27.3539 3.375 26.7857V5.35709C3.375 4.78876 3.57819 4.24373 3.93986 3.84185C4.30154 3.44 4.79208 3.21423 5.30357 3.21423H8.19643" stroke="white" stroke-width="1.71429" stroke-linecap="round" stroke-linejoin="round"/>
</svg>
